<?xml version="1.0" standalone="no"?>
<!DOCTYPE svg PUBLIC "-//W3C//DTD SVG 20010904//EN"
 "http://www.w3.org/TR/2001/REC-SVG-20010904/DTD/svg10.dtd">
<svg version="1.0" xmlns="http://www.w3.org/2000/svg"
 width="320.000000pt" height="320.000000pt" viewBox="0 0 320.000000 320.000000"
 preserveAspectRatio="xMidYMid meet">
<metadata>
Created by potrace 1.14, written by Peter Selinger 2001-2017
</metadata>
<g transform="translate(0.000000,320.000000) scale(0.100000,-0.100000)"
fill="#000000" stroke="none">
<path d="M0 2981 c0 -121 4 -222 9 -225 5 -4 21 7 34 24 28 33 40 39 31 15 -4
-8 -1 -15 4 -15 18 0 25 20 12 35 -7 8 -7 15 -1 19 5 4 12 2 16 -4 4 -6 11 -7
17 -4 6 4 8 -2 3 -17 -5 -18 -4 -20 4 -9 6 8 8 25 4 37 -3 14 -1 23 7 23 6 0
8 -5 4 -12 -5 -7 -3 -8 6 -3 10 6 9 11 -5 22 -11 7 -20 20 -21 29 -2 12 0 13
12 3 8 -6 18 -9 21 -5 4 4 1 11 -6 15 -9 6 -10 11 -2 15 6 4 15 -3 20 -16 6
-13 10 -17 10 -10 1 6 8 12 16 12 8 0 15 5 15 11 0 5 -4 8 -9 5 -5 -3 -11 4
-14 15 -4 14 -11 20 -21 16 -10 -4 -13 -1 -9 9 3 7 12 14 20 14 10 0 13 6 8
18 -12 32 -10 37 13 34 12 -2 22 2 22 8 0 6 -4 9 -9 6 -10 -6 -25 24 -16 32 3
3 5 1 5 -5 0 -6 9 -13 20 -16 22 -6 28 8 7 16 -6 3 -1 6 13 6 20 1 22 3 10 11
-13 8 -12 10 3 10 9 0 17 4 17 9 0 5 9 13 21 16 14 5 18 10 11 17 -16 16 17
49 38 38 12 -6 17 -5 17 6 0 12 -30 14 -179 14 l-178 0 0 -219z"/>
<path d="M190 2860 c-13 -8 -12 -10 3 -10 9 0 17 5 17 10 0 12 -1 12 -20 0z"/>
<path d="M2605 2180 c3 -5 11 -10 16 -10 6 0 7 5 4 10 -3 6 -11 10 -16 10 -6
0 -7 -4 -4 -10z"/>
<path d="M3055 2171 c3 -5 1 -12 -5 -16 -13 -8 -13 -25 1 -25 5 0 8 4 4 9 -3
5 -1 12 5 16 13 8 13 25 -1 25 -5 0 -8 -4 -4 -9z"/>
<path d="M2933 2163 c-7 -2 -9 -11 -6 -20 4 -10 2 -14 -4 -10 -5 3 -10 -1 -10
-9 0 -10 7 -14 19 -11 10 3 18 0 18 -8 0 -8 -9 -11 -25 -7 -20 3 -24 1 -19
-12 4 -11 1 -16 -11 -16 -11 0 -15 -5 -11 -16 3 -8 2 -12 -4 -9 -6 3 -10 2
-10 -4 0 -5 6 -12 13 -14 9 -4 9 -6 -1 -6 -7 -1 -10 -5 -7 -11 3 -5 1 -10 -5
-10 -6 0 -8 -4 -5 -10 3 -6 -4 -10 -17 -10 -19 -1 -17 -3 12 -16 19 -8 30 -18
25 -22 -14 -10 -17 -32 -5 -32 5 0 13 6 17 14 7 12 10 11 23 -2 13 -14 12 -15
-3 -9 -14 5 -15 4 -4 -13 6 -11 15 -20 19 -20 5 0 8 -4 8 -10 0 -5 -6 -10 -14
-10 -25 0 -30 -22 -9 -40 17 -13 18 -19 8 -33 -6 -9 -16 -13 -20 -9 -5 4 -5 1
-1 -6 6 -10 14 -8 37 5 16 10 25 19 19 21 -17 6 -11 21 8 19 13 -1 17 -10 16
-41 -2 -75 0 -72 -55 -73 -27 0 -55 -5 -60 -10 -7 -7 -3 -9 14 -6 16 3 26 -1
30 -12 5 -11 2 -15 -11 -13 -11 2 -18 -5 -20 -20 -2 -12 -8 -19 -14 -16 -5 4
-8 -2 -6 -13 2 -11 -1 -22 -7 -24 -5 -2 -11 15 -13 39 -3 42 -17 56 -28 27 -9
-23 -24 -18 -24 9 0 27 -24 53 -35 36 -3 -5 -3 -10 1 -10 4 0 -3 -9 -16 -20
-28 -24 -27 -24 -47 -5 -8 9 -17 15 -18 13 -2 -2 -5 -29 -7 -61 -1 -31 -7 -57
-12 -57 -4 0 -5 11 -2 25 5 20 3 25 -11 25 -15 0 -16 2 -3 10 13 8 13 12 -1
36 -9 14 -19 24 -24 22 -4 -1 -11 7 -16 20 -5 12 -16 22 -26 22 -14 0 -15 -2
-5 -9 10 -6 9 -10 -7 -14 -12 -3 -21 -12 -21 -21 0 -9 -5 -16 -10 -16 -20 0
-7 62 15 70 19 8 19 8 -4 17 -13 5 -35 7 -49 5 -22 -4 -23 -6 -9 -17 10 -7 17
-17 17 -24 0 -14 -23 -14 -37 0 -8 8 -20 7 -44 -5 -37 -18 -52 -13 -23 9 18
14 18 14 -6 15 -24 1 -24 2 -4 10 12 5 25 14 30 21 5 9 -2 11 -29 6 -28 -4
-35 -2 -31 8 3 8 29 17 60 21 34 4 53 11 51 18 -6 17 -38 20 -48 4 -7 -10 -12
-10 -27 -1 -13 7 -23 8 -29 2 -5 -5 -17 -7 -26 -3 -13 5 -14 10 -6 26 10 18 9
18 -10 8 -15 -8 -21 -21 -22 -48 -1 -20 -3 -29 -6 -19 -7 25 -23 21 -20 -5 1
-14 -3 -22 -11 -20 -10 2 -10 -2 -2 -18 6 -11 15 -20 19 -20 5 0 12 -7 15 -16
6 -14 4 -15 -9 -4 -14 12 -15 10 -9 -16 4 -16 14 -38 24 -49 30 -34 43 -68 46
-115 1 -25 7 -59 12 -77 8 -23 7 -36 -3 -50 -9 -12 -10 -23 -3 -36 6 -13 6
-23 -3 -33 -9 -11 -9 -14 1 -14 9 0 7 -7 -6 -22 -10 -12 -14 -19 -8 -15 6 3
11 0 11 -8 0 -8 -4 -12 -8 -10 -3 3 -13 -3 -20 -12 -12 -14 -12 -15 -1 -9 12
7 12 4 1 -15 -7 -13 -12 -28 -11 -33 2 -5 -4 -4 -12 4 -16 13 -20 8 -17 -22 3
-21 -15 -24 -22 -5 -4 8 -6 7 -6 -3 -1 -10 -7 -7 -21 10 -15 18 -18 20 -13 6
4 -13 3 -17 -5 -12 -7 4 -12 2 -12 -4 0 -6 -5 -8 -12 -4 -7 4 -8 3 -4 -4 4 -8
0 -12 -11 -12 -11 0 -24 -5 -30 -11 -8 -8 -15 -4 -27 12 -9 13 -16 19 -16 13
0 -5 5 -15 11 -21 8 -8 8 -13 0 -17 -6 -4 -11 -25 -11 -47 0 -26 -4 -38 -11
-34 -5 4 -8 21 -5 38 5 25 4 27 -3 12 -8 -16 -10 -17 -10 -3 -1 9 4 20 9 23 6
3 10 11 10 16 0 6 -4 7 -10 4 -5 -3 -10 2 -10 12 0 15 -2 15 -9 4 -7 -11 -10
-7 -14 15 l-4 29 -2 -27 c0 -18 -7 -28 -16 -28 -8 0 -15 -7 -15 -15 0 -8 6
-15 14 -15 8 0 13 -8 12 -17 0 -10 6 -18 14 -18 10 0 14 -9 12 -24 -2 -21 1
-23 27 -19 17 2 28 2 26 -2 -2 -3 5 -11 15 -18 11 -6 21 -8 24 -3 3 5 17 7 31
6 14 -2 25 1 25 6 0 17 64 4 88 -18 38 -35 57 -29 76 22 10 25 21 45 26 45 5
0 14 16 21 35 7 19 17 35 22 35 4 0 5 5 1 12 -4 7 -3 8 4 4 7 -4 12 -4 12 1 0
4 9 19 20 33 l20 25 -13 -33 c-8 -19 -21 -42 -31 -53 -28 -33 -30 -72 -6 -110
16 -25 21 -28 17 -11 -3 12 -1 22 4 22 5 0 10 -12 10 -27 1 -17 3 -21 6 -10 2
9 11 17 20 17 10 0 13 6 9 16 -3 8 -2 12 4 9 15 -9 12 -26 -7 -41 -10 -7 -13
-14 -6 -14 6 0 18 6 25 12 19 19 41 16 55 -7 7 -11 12 -14 13 -7 0 10 6 9 29
-2 16 -9 32 -12 35 -8 4 3 4 -1 1 -10 -6 -14 -2 -16 21 -9 15 4 30 14 32 22 5
12 3 12 -12 0 -18 -15 -32 -9 -21 8 3 6 15 11 26 11 11 0 17 5 14 10 -9 14 8
12 24 -3 11 -10 12 -9 5 3 -18 31 -13 42 9 24 12 -10 16 -12 10 -4 -23 25 -16
43 13 36 14 -4 23 -3 20 2 -3 5 6 7 21 4 21 -4 25 -2 20 11 -5 12 1 15 28 13
19 -2 41 -9 50 -16 9 -8 15 -9 15 -2 0 6 -7 15 -16 20 -10 6 -14 18 -10 38 2
16 5 32 5 35 2 14 28 17 28 3 0 -7 -4 -11 -8 -8 -4 2 -10 0 -14 -6 -3 -5 3
-10 14 -10 21 0 23 4 25 47 1 13 6 23 11 24 18 3 37 39 29 57 -4 9 -6 24 -5
32 2 11 -3 10 -20 -5 -13 -11 -18 -13 -11 -5 16 18 16 34 -1 27 -13 -5 -33 12
-32 28 0 6 7 20 14 33 12 22 11 23 -7 13 -11 -6 -23 -16 -25 -23 -4 -9 -12 -5
-27 12 -20 23 -21 25 -3 31 17 7 17 8 -2 8 -16 1 -17 3 -5 11 12 7 10 9 -7 7
-15 -1 -19 -5 -13 -13 6 -6 7 -14 3 -18 -10 -10 -30 45 -27 74 1 14 3 43 3 65
1 32 4 37 12 23 5 -10 20 -17 32 -17 17 1 18 2 5 6 -19 5 -25 23 -7 23 5 0 7
5 3 12 -4 7 -3 8 5 4 6 -4 9 -11 6 -16 -3 -4 2 -13 11 -20 8 -7 12 -20 9 -29
-4 -10 -3 -13 3 -6 6 6 12 19 14 30 2 12 11 19 21 19 12 -1 17 4 15 15 -2 9
-12 16 -22 16 -26 0 -39 40 -18 57 13 11 15 11 7 -2 -7 -13 -6 -13 7 -2 9 7
14 21 11 32 -6 24 0 25 22 4 14 -15 14 -17 -2 -31 -10 -8 -12 -12 -5 -8 7 4
19 2 27 -5 11 -9 12 -4 8 27 -4 28 -1 42 11 52 15 13 16 11 6 -13 -13 -35 -13
-36 5 -36 8 0 23 9 32 20 20 23 39 26 46 8 3 -7 6 -4 7 7 1 19 1 19 11 2 12
-21 29 -13 29 14 0 13 7 19 21 19 11 0 17 5 14 10 -4 6 -10 8 -14 6 -4 -3 -13
4 -20 16 -7 11 -8 17 -3 14 5 -3 12 4 15 15 5 17 2 20 -14 16 -10 -3 -17 -1
-13 4 3 5 9 9 15 9 5 0 17 8 27 18 19 19 29 112 12 112 -6 0 -10 -6 -10 -12 0
-9 -4 -8 -10 2 -5 8 -10 22 -10 30 0 12 2 12 9 2 6 -10 10 -10 21 3 11 13 9
15 -9 15 -12 0 -20 4 -16 9 3 5 -4 12 -15 16 -11 3 -20 11 -20 17 0 7 5 6 14
-1 9 -8 16 -8 20 -2 4 5 2 12 -4 16 -5 3 -10 4 -10 0 0 -3 -9 -1 -20 5 -12 6
-17 17 -14 28 5 16 4 16 -9 -1 -14 -16 -16 -17 -31 -2 -9 9 -13 22 -9 28 4 7
-2 5 -12 -3 -11 -9 -16 -10 -11 -2 4 6 2 12 -3 12 -6 0 -11 8 -12 18 0 10 -3
12 -6 4 -3 -9 -9 -7 -21 6 -10 10 -13 12 -8 5 7 -10 4 -12 -10 -7 -10 4 -23
10 -29 14 -5 4 -15 5 -22 3z m22 -23 c3 -5 1 -10 -4 -10 -6 0 -11 5 -11 10 0
6 2 10 4 10 3 0 8 -4 11 -10z m39 -25 c-4 -8 -8 -15 -10 -15 -2 0 -4 7 -4 15
0 8 4 15 10 15 5 0 7 -7 4 -15z m26 -15 c0 -5 -2 -10 -4 -10 -3 0 -8 5 -11 10
-3 6 -1 10 4 10 6 0 11 -4 11 -10z m160 -190 c-6 -11 -8 -25 -5 -30 3 -6 -1
-10 -10 -10 -14 0 -14 3 0 30 9 17 18 30 21 30 2 0 0 -9 -6 -20z m-43 -52 c-3
-8 -6 -5 -6 6 -1 11 2 17 5 13 3 -3 4 -12 1 -19z m-57 -38 c0 -5 -2 -10 -4
-10 -3 0 -8 5 -11 10 -3 6 -1 10 4 10 6 0 11 -4 11 -10z m63 -65 c4 -8 2 -17
-3 -20 -6 -4 -10 3 -10 14 0 25 6 27 13 6z m-23 -14 c0 -5 -7 -12 -16 -15 -14
-5 -15 -4 -4 9 14 17 20 19 20 6z m-73 -31 c-2 -11 -6 -22 -9 -26 -4 -3 -5 2
-3 13 2 10 4 21 4 26 1 4 3 7 6 7 3 0 4 -9 2 -20z m-549 -38 c3 -9 -6 -12 -30
-11 -18 1 -41 -2 -50 -6 -10 -4 -18 -3 -18 2 0 11 57 32 79 30 8 -1 16 -8 19
-15z m251 -74 c1 -10 -2 -18 -6 -18 -5 0 -9 17 -10 38 -1 28 0 32 7 17 5 -11
9 -28 9 -37z m148 30 c-3 -8 -6 -5 -6 6 -1 11 2 17 5 13 3 -3 4 -12 1 -19z
m-112 -8 c-3 -5 -11 -10 -16 -10 -6 0 -7 5 -4 10 3 6 11 10 16 10 6 0 7 -4 4
-10z m-389 -25 c18 -15 18 -15 -5 -13 -14 2 -26 9 -29 16 -5 17 10 15 34 -3z
m29 -35 c3 -5 1 -10 -4 -10 -6 0 -11 5 -11 10 0 6 2 10 4 10 3 0 8 -4 11 -10z
m330 0 c3 -5 1 -10 -4 -10 -6 0 -11 5 -11 10 0 6 2 10 4 10 3 0 8 -4 11 -10z
m-60 -52 c-11 -38 -16 -43 -44 -46 -48 -5 -85 51 -43 64 9 3 26 10 37 14 60
25 66 21 50 -32z m107 -66 c-7 -2 -12 -10 -12 -18 0 -8 -5 -14 -11 -14 -6 0
-8 9 -3 23 8 26 27 41 33 25 2 -7 -1 -14 -7 -16z m-120 -139 l23 -25 -35 7
c-41 9 -36 5 -44 32 -6 18 -3 20 13 16 10 -3 30 -16 43 -30z m-432 -179 c0 -5
-5 -3 -12 4 -10 10 -15 7 -25 -10 -12 -23 -12 -23 -13 5 0 16 4 26 10 22 6 -3
10 -1 10 5 0 7 6 5 15 -4 8 -8 15 -18 15 -22z m-70 -5 c0 -5 -4 -8 -9 -4 -5 3
-12 -3 -14 -12 -4 -14 -5 -13 -6 5 -1 13 5 22 14 22 8 0 15 -5 15 -11z m-123
-31 c-3 -8 -6 -5 -6 6 -1 11 2 17 5 13 3 -3 4 -12 1 -19z m305 -40 c-7 -7 -12
-8 -12 -2 0 14 12 26 19 19 2 -3 -1 -11 -7 -17z m-25 -60 c-3 -8 -6 -5 -6 6
-1 11 2 17 5 13 3 -3 4 -12 1 -19z"/>
<path d="M1916 2140 c12 -5 25 -14 29 -20 6 -9 10 -9 16 1 14 22 11 24 -29 26
-30 2 -33 0 -16 -7z"/>
<path d="M2396 2135 c23 -17 44 -19 44 -4 0 5 5 7 10 4 6 -3 10 -1 10 4 0 6
-19 11 -42 11 -39 0 -40 -1 -22 -15z"/>
<path d="M2633 2130 c-4 -15 -11 -19 -25 -14 -16 5 -19 3 -13 -7 5 -8 -1 -6
-12 4 -16 14 -26 16 -47 8 -14 -6 -26 -13 -26 -16 0 -4 5 -3 10 0 6 3 10 -1
10 -10 0 -8 -11 -20 -24 -25 -13 -5 -27 -14 -31 -20 -5 -8 -13 -6 -26 6 -16
14 -23 15 -45 5 -23 -10 -26 -10 -20 5 5 14 1 15 -31 8 -21 -4 -51 -8 -68 -9
-16 0 -36 -4 -42 -8 -7 -4 -21 -4 -30 1 -26 13 -58 1 -82 -30 -15 -19 -18 -28
-9 -31 8 -4 7 -6 -4 -6 -18 -1 -48 24 -48 40 0 6 -4 8 -9 5 -15 -9 1 -56 23
-68 11 -6 27 -17 34 -25 11 -10 17 -11 28 -2 11 9 14 9 14 0 0 -8 6 -7 16 3 9
9 35 17 62 18 26 1 62 2 80 3 18 1 35 -2 38 -6 10 -17 49 -8 76 18 22 21 30
24 42 14 22 -18 93 -5 101 19 3 10 19 23 34 30 16 6 39 21 50 32 22 20 22 20
57 -1 19 -12 43 -21 52 -20 10 0 12 3 5 5 -7 3 -9 12 -6 20 3 8 -1 14 -11 14
-26 0 -86 33 -86 47 0 21 -31 15 -37 -7z"/>
<path d="M1825 2064 c-16 -25 -16 -31 -4 -53 10 -18 25 -27 45 -29 25 -2 33 2
43 24 10 24 10 31 -7 53 -27 36 -55 38 -77 5z"/>
<path d="M2855 2069 c-4 -6 -5 -12 -2 -15 2 -3 7 2 10 11 7 17 1 20 -8 4z"/>
<path d="M2760 2025 c0 -8 6 -15 13 -15 8 0 14 7 14 15 0 8 -6 15 -14 15 -7 0
-13 -7 -13 -15z"/>
<path d="M2840 2009 c0 -5 5 -7 10 -4 6 3 10 8 10 11 0 2 -4 4 -10 4 -5 0 -10
-5 -10 -11z"/>
<path d="M1920 1988 c-12 -22 -12 -22 6 -6 10 10 15 20 12 24 -4 3 -12 -5 -18
-18z"/>
<path d="M2035 1960 c-3 -5 -1 -10 4 -10 6 0 11 5 11 10 0 6 -2 10 -4 10 -3 0
-8 -4 -11 -10z"/>
<path d="M2210 1890 c0 -5 5 -10 10 -10 6 0 10 5 10 10 0 6 -4 10 -10 10 -5 0
-10 -4 -10 -10z"/>
<path d="M2170 1879 c0 -5 5 -7 10 -4 6 3 10 8 10 11 0 2 -4 4 -10 4 -5 0 -10
-5 -10 -11z"/>
<path d="M2200 1850 c0 -5 5 -10 10 -10 6 0 10 5 10 10 0 6 -4 10 -10 10 -5 0
-10 -4 -10 -10z"/>
<path d="M3180 1831 c0 -11 5 -23 10 -26 6 -4 10 5 10 19 0 14 -4 26 -10 26
-5 0 -10 -9 -10 -19z"/>
<path d="M2801 1804 c0 -11 3 -14 6 -6 3 7 2 16 -1 19 -3 4 -6 -2 -5 -13z"/>
<path d="M2865 1809 c-4 -6 -5 -12 -2 -15 2 -3 7 2 10 11 7 17 1 20 -8 4z"/>
<path d="M2885 1800 c-3 -5 1 -10 9 -10 9 0 16 5 16 10 0 6 -4 10 -9 10 -6 0
-13 -4 -16 -10z"/>
<path d="M2455 1780 c-3 -5 1 -10 9 -10 9 0 16 5 16 10 0 6 -4 10 -9 10 -6 0
-13 -4 -16 -10z"/>
<path d="M2940 1759 c-17 -14 -19 -19 -7 -15 10 3 15 2 12 -3 -8 -14 9 -21 25
-11 10 6 11 14 4 29 l-9 20 -25 -20z"/>
<path d="M2812 1730 c2 -53 18 -63 18 -11 0 22 -4 43 -10 46 -6 4 -9 -10 -8
-35z"/>
<path d="M2844 1758 c-4 -7 -3 -10 1 -5 5 4 20 -3 33 -15 l25 -23 -19 27 c-21
31 -30 34 -40 16z"/>
<path d="M2040 1750 c0 -5 9 -14 20 -20 16 -8 20 -8 20 4 0 7 -7 17 -16 20
-21 8 -24 8 -24 -4z"/>
<path d="M2576 1747 c3 -10 9 -15 12 -12 3 3 0 11 -7 18 -10 9 -11 8 -5 -6z"/>
<path d="M2148 1722 c-19 -4 -24 -17 -10 -26 11 -7 35 10 31 21 -2 5 -12 7
-21 5z"/>
<path d="M2204 1693 c-3 -16 -7 -34 -9 -40 -3 -10 0 -10 13 -2 13 8 17 20 14
40 -5 36 -10 37 -18 2z"/>
<path d="M2230 1680 c0 -5 9 -14 21 -20 19 -11 20 -10 9 9 -11 22 -30 29 -30
11z"/>
<path d="M2935 1619 c-4 -6 -5 -12 -2 -15 2 -3 7 2 10 11 7 17 1 20 -8 4z"/>
<path d="M2960 1618 c1 -18 26 -49 33 -41 11 11 8 23 -5 21 -7 -2 -12 5 -10
15 2 9 -2 17 -8 17 -5 0 -10 -6 -10 -12z"/>
<path d="M2865 1510 c3 -5 8 -10 11 -10 2 0 4 5 4 10 0 6 -5 10 -11 10 -5 0
-7 -4 -4 -10z"/>
<path d="M2947 1513 c-2 -5 0 -19 4 -33 7 -23 7 -22 6 8 -1 33 -3 37 -10 25z"/>
<path d="M2901 1394 c-11 -13 -11 -18 -1 -27 10 -9 11 -9 6 1 -4 6 -3 12 2 12
6 0 12 7 16 15 7 19 -5 19 -23 -1z"/>
<path d="M1945 1179 c-11 -4 -14 -8 -7 -8 6 -1 12 -9 13 -18 0 -13 3 -11 10 6
11 29 10 31 -16 20z"/>
<path d="M1977 1170 c-3 -11 -1 -20 4 -20 5 0 9 9 9 20 0 11 -2 20 -4 20 -2 0
-6 -9 -9 -20z"/>
<path d="M1981 1124 c0 -11 3 -14 6 -6 3 7 2 16 -1 19 -3 4 -6 -2 -5 -13z"/>
<path d="M2940 1110 c0 -5 5 -10 11 -10 5 0 7 5 4 10 -3 6 -8 10 -11 10 -2 0
-4 -4 -4 -10z"/>
<path d="M2041 1034 c0 -11 3 -14 6 -6 3 7 2 16 -1 19 -3 4 -6 -2 -5 -13z"/>
<path d="M2480 79 c0 -11 4 -18 10 -14 5 3 7 12 3 20 -7 21 -13 19 -13 -6z"/>
<path d="M2465 10 c-3 -5 -1 -10 4 -10 6 0 11 5 11 10 0 6 -2 10 -4 10 -3 0
-8 -4 -11 -10z"/>
</g>
</svg>
